# xmcd
#
# Track frame offsets:
# 150
# 10950
# 29025
# 45900
#
# Disc length: 803 seconds
#
#
# Revision: 0
# Processed by: cddbd v1.5.1PL0 Copyright (c) Steve Scherf et al.
# Submitted via: FreeRIP 2.70 
#
DISCID=28032104
DTITLE=The Roman Band - Demo
DYEAR=2004
DGENRE=Blues
TTITLE0=It's Raining
TTITLE1=Pornstar
TTITLE2=Boogie Man
TTITLE3=K-Boogie
EXTD=Pre-release Demo 
EXTT0=
EXTT1=
EXTT2=
EXTT3=
PLAYORDER=
